<svg width="31" height="31" viewBox="0 0 31 31" fill="none" xmlns="http://www.w3.org/2000/svg">
<rect x="1.03735" y="0.746582" width="29" height="29" rx="14.5" fill="white" stroke="#E9E9E9"/>
<path d="M21.5374 15.9966C21.9516 15.9966 22.2874 15.6608 22.2874 15.2466C22.2874 14.8324 21.9516 14.4966 21.5374 14.4966V15.2466V15.9966ZM9.00702 14.7163C8.71413 15.0091 8.71413 15.484 9.00702 15.7769L13.78 20.5499C14.0729 20.8428 14.5478 20.8428 14.8407 20.5499C15.1335 20.257 15.1335 19.7821 14.8407 19.4892L10.598 15.2466L14.8407 11.0039C15.1335 10.711 15.1335 10.2362 14.8407 9.94328C14.5478 9.65039 14.0729 9.65039 13.78 9.94328L9.00702 14.7163ZM21.5374 15.2466V14.4966L9.53735 14.4966V15.2466V15.9966L21.5374 15.9966V15.2466Z" fill="#1D1D1D"/>
</svg>
