<svg width="18" height="18" viewBox="0 0 18 18" fill="none" xmlns="http://www.w3.org/2000/svg">
    <path d="M9.48145 17.4648C10.532 17.4648 11.5723 17.2579 12.5429 16.8559C13.5135 16.4538 14.3954 15.8646 15.1383 15.1217C15.8812 14.3788 16.4704 13.4969 16.8725 12.5263C17.2745 11.5557 17.4814 10.5154 17.4814 9.46484C17.4814 8.41427 17.2745 7.37398 16.8725 6.40338C16.4704 5.43277 15.8812 4.55086 15.1383 3.80799C14.3954 3.06512 13.5135 2.47585 12.5429 2.07381C11.5723 1.67177 10.532 1.46484 9.48145 1.46484M9.48145 17.4648C8.43087 17.4648 7.39058 17.2579 6.41998 16.8559C5.44937 16.4538 4.56746 15.8646 3.82459 15.1217C3.08172 14.3788 2.49245 13.4969 2.09041 12.5263C1.68837 11.5557 1.48145 10.5154 1.48145 9.46484C1.48145 8.41427 1.68837 7.37398 2.09041 6.40338C2.49245 5.43277 3.08172 4.55086 3.82459 3.80799C4.56746 3.06512 5.44937 2.47585 6.41998 2.07381C7.39058 1.67177 8.43087 1.46484 9.48145 1.46484M9.48145 17.4648C11.9357 17.4648 12.9846 12.8755 12.9846 9.46484C12.9846 6.05418 11.9357 1.46484 9.48145 1.46484M9.48145 17.4648C7.02722 17.4648 5.97833 12.8755 5.97833 9.46484C5.97833 6.05418 7.02722 1.46484 9.48145 1.46484M1.92589 6.79818H17.037M1.92589 12.1315H17.037" stroke="currentColor" stroke-linecap="round" stroke-linejoin="round"/>
</svg>