<svg xmlns="http://www.w3.org/2000/svg" width="11" height="12" viewBox="0 0 11 12" fill="none">
  <g clip-path="url(#clip0_294_14511)">
    <path d="M8.93815 4H7.79232V3C7.79232 2.45 7.37982 2 6.87565 2H1.37565C0.871484 2 0.458984 2.45 0.458984 3V7.5C0.458984 8.05 0.871484 8.5 1.37565 8.5C1.37565 9.33 1.98982 10 2.75065 10C3.51148 10 4.12565 9.33 4.12565 8.5H6.87565C6.87565 9.33 7.48982 10 8.25065 10C9.01149 10 9.62565 9.33 9.62565 8.5H10.084C10.3361 8.5 10.5423 8.275 10.5423 8V6.335C10.5423 6.12 10.4782 5.91 10.359 5.735L9.30482 4.2C9.21773 4.075 9.08024 4 8.93815 4ZM2.75065 9C2.49857 9 2.29232 8.775 2.29232 8.5C2.29232 8.225 2.49857 8 2.75065 8C3.00273 8 3.20898 8.225 3.20898 8.5C3.20898 8.775 3.00273 9 2.75065 9ZM8.93815 4.75L9.83648 6H7.79232V4.75H8.93815ZM8.25065 9C7.99857 9 7.79232 8.775 7.79232 8.5C7.79232 8.225 7.99857 8 8.25065 8C8.50274 8 8.70899 8.225 8.70899 8.5C8.70899 8.775 8.50274 9 8.25065 9Z" fill="#1D1D1D"/>
  </g>
  <defs>
    <clipPath id="clip0_294_14511">
      <rect width="11" height="12" fill="white"/>
    </clipPath>
  </defs>
</svg>