<svg width="100%" height="100%" viewBox="3.267 2.947 21.329 21.356" xmlns="http://www.w3.org/2000/svg">
    <path d="M3.312,7.137a1.571,1.571,0,0,1,.4-.853l3.2-3.2q.374-.32.56.107l2.587,4.853a.7.7,0,0,1-.133.827L8.752,10.044a1.327,1.327,0,0,0-.373.827,4.071,4.071,0,0,0,.827,2.053,17.534,17.534,0,0,0,1.627,2.134l.827.852c.249.249.568.556.961.92a16.1,16.1,0,0,0,1.932,1.44,4.325,4.325,0,0,0,2.12.893,1.161,1.161,0,0,0,.853-.347l1.387-1.387a.586.586,0,0,1,.8-.107l4.667,2.747a.39.39,0,0,1,.213.28.341.341,0,0,1-.107.307l-3.2,3.2a1.567,1.567,0,0,1-.852.4,6.451,6.451,0,0,1-2.947-.36,13.335,13.335,0,0,1-3.039-1.453q-1.4-.906-2.6-1.839T9.927,19l-.693-.667q-.266-.266-.707-.733T6.992,15.763A26.78,26.78,0,0,1,5.1,13.084,15.633,15.633,0,0,1,3.712,10.11,6.325,6.325,0,0,1,3.312,7.137Z" fill="currentColor"/>
</svg>
