<svg width="31" height="31" viewBox="0 0 31 31" fill="none" xmlns="http://www.w3.org/2000/svg">
<rect x="30.0374" y="29.7466" width="29" height="29" rx="14.5" transform="rotate(180 30.0374 29.7466)" fill="white" stroke="#E9E9E9"/>
<path d="M9.53735 14.4966C9.12314 14.4966 8.78735 14.8324 8.78735 15.2466C8.78735 15.6608 9.12314 15.9966 9.53735 15.9966V15.2466V14.4966ZM22.0677 15.7769C22.3606 15.484 22.3606 15.0091 22.0677 14.7163L17.2947 9.94328C17.0018 9.65039 16.5269 9.65039 16.2341 9.94328C15.9412 10.2362 15.9412 10.711 16.2341 11.0039L20.4767 15.2466L16.2341 19.4892C15.9412 19.7821 15.9412 20.257 16.2341 20.5499C16.5269 20.8428 17.0018 20.8428 17.2947 20.5499L22.0677 15.7769ZM9.53735 15.2466V15.9966L21.5374 15.9966V15.2466V14.4966L9.53735 14.4966V15.2466Z" fill="#1D1D1D"/>
</svg>
