<svg width="30" height="31" viewBox="0 0 30 31" fill="none" xmlns="http://www.w3.org/2000/svg">
<rect x="30" y="30.1152" width="30" height="30" rx="15" transform="rotate(180 30 30.1152)" fill="white"/>
<path d="M9 14.6152C8.72386 14.6152 8.5 14.8391 8.5 15.1152C8.5 15.3914 8.72386 15.6152 9 15.6152V15.1152V14.6152ZM21.3536 15.4688C21.5488 15.2735 21.5488 14.9569 21.3536 14.7617L18.1716 11.5797C17.9763 11.3844 17.6597 11.3844 17.4645 11.5797C17.2692 11.775 17.2692 12.0915 17.4645 12.2868L20.2929 15.1152L17.4645 17.9437C17.2692 18.1389 17.2692 18.4555 17.4645 18.6508C17.6597 18.846 17.9763 18.846 18.1716 18.6508L21.3536 15.4688ZM9 15.1152V15.6152L21 15.6152V15.1152V14.6152L9 14.6152V15.1152Z" fill="#332D2D"/>
</svg>
