<svg xmlns="http://www.w3.org/2000/svg" width="25" height="22" viewBox="0 0 25 22" fill="none">
    <path d="M21.6278 2.84356C21.085 2.30067 20.4406 1.87001 19.7314 1.57619C19.0222 1.28237 18.2621 1.13114 17.4944 1.13114C16.7267 1.13114 15.9666 1.28237 15.2574 1.57619C14.5481 1.87001 13.9038 2.30067 13.361 2.84356L12.234 3.97054L11.1071 2.84356C10.5708 2.27264 9.92522 1.8153 9.20874 1.49873C8.49227 1.18215 7.71948 1.01279 6.93627 1.0007C6.15306 0.988606 5.37541 1.13403 4.6495 1.42834C3.92359 1.72265 3.26423 2.15984 2.71058 2.71394C2.15693 3.26805 1.72028 3.92776 1.42656 4.65391C1.13284 5.38006 0.988044 6.15783 1.00077 6.94102C1.0135 7.72422 1.18349 8.49687 1.50065 9.21309C1.81781 9.92931 2.27567 10.5745 2.84703 11.1103L3.97401 12.2373L12.2354 20.5L20.5021 12.2333L21.6291 11.1063C22.7241 10.0101 23.3391 8.52403 23.3388 6.97464C23.3386 5.42525 22.7231 3.93936 21.6278 2.84356Z" stroke="currentColor" stroke-width="1.5" stroke-linecap="round" stroke-linejoin="round"/>
</svg>