<svg width="31" height="31" viewBox="0 0 31 31" fill="none" xmlns="http://www.w3.org/2000/svg">
<rect x="0.121094" y="0.115234" width="30" height="30" rx="15" fill="white"/>
<path d="M21.1211 15.6152C21.3972 15.6152 21.6211 15.3914 21.6211 15.1152C21.6211 14.8391 21.3972 14.6152 21.1211 14.6152V15.1152V15.6152ZM8.76754 14.7617C8.57228 14.9569 8.57228 15.2735 8.76754 15.4688L11.9495 18.6508C12.1448 18.846 12.4614 18.846 12.6566 18.6508C12.8519 18.4555 12.8519 18.1389 12.6566 17.9437L9.8282 15.1152L12.6566 12.2868C12.8519 12.0915 12.8519 11.775 12.6566 11.5797C12.4614 11.3844 12.1448 11.3844 11.9495 11.5797L8.76754 14.7617ZM21.1211 15.1152V14.6152L9.12109 14.6152V15.1152V15.6152L21.1211 15.6152V15.1152Z" fill="#332D2D"/>
</svg>
