<svg xmlns="http://www.w3.org/2000/svg" fill="none" viewBox="0 0 20 24"><path fill="currentColor" d="M1.743 7.256v14.48c0 .796.651 1.447 1.448 1.447h13.031c.796 0 1.448-.651 1.448-1.448V7.256H1.743Zm4.344 13.032H4.639V10.152h1.448v10.136Zm2.895 0H7.535V10.152h1.447v10.136Zm2.896 0H10.43V10.152h1.448v10.136Zm2.896 0h-1.448V10.152h1.448v10.136Zm3.258-17.376h-4.706v-1.81A1.09 1.09 0 0 0 12.24.018H7.173a1.09 1.09 0 0 0-1.086 1.086v1.81H1.38A1.086 1.086 0 0 0 .295 3.997v1.81h18.823v-1.81a1.086 1.086 0 0 0-1.086-1.086Zm-6.154 0H7.535V1.483h4.343v1.43Z"/></svg>