<svg xmlns="http://www.w3.org/2000/svg" width="19" height="20" viewBox="0 0 19 20" fill="none">
    <path d="M15.3101 0.714844L18.0522 4.1875V17.3145C18.0522 17.6773 17.9003 18.0311 17.6216 18.2959C17.342 18.5613 16.9579 18.7148 16.5522 18.7148H2.55225C2.14655 18.7148 1.76245 18.5613 1.48291 18.2959C1.20417 18.0311 1.05225 17.6773 1.05225 17.3145V4.1875L3.79443 0.714844H15.3101Z" stroke="currentColor" stroke-linecap="round" stroke-linejoin="round"/>
    <mask id="path-2-inside-1_1796_9049" fill="white">
        <path d="M1.61279 4.07422H17.8619H1.61279Z"/>
    </mask>
    <path d="M1.61279 3.57422C1.33665 3.57422 1.11279 3.79808 1.11279 4.07422C1.11279 4.35036 1.33665 4.57422 1.61279 4.57422V3.57422ZM17.8619 4.57422C18.138 4.57422 18.3619 4.35036 18.3619 4.07422C18.3619 3.79808 18.138 3.57422 17.8619 3.57422V4.57422ZM1.61279 4.07422V4.57422H17.8619V4.07422V3.57422H1.61279V4.07422Z" fill="currentColor" mask="url(#path-2-inside-1_1796_9049)"/>
    <mask id="path-4-inside-2_1796_9049" fill="white">
        <path d="M13.5492 7.81445C13.5259 8.80731 13.0945 9.75207 12.3472 10.4465C11.5998 11.1408 10.596 11.5297 9.55071 11.5297C8.50538 11.5297 7.50159 11.1408 6.75426 10.4465C6.00694 9.75207 5.57547 8.80731 5.55225 7.81445"/>
    </mask>
    <path d="M14.5489 7.83784C14.5618 7.28571 14.1247 6.82764 13.5726 6.81473C13.0204 6.80181 12.5624 7.23893 12.5494 7.79107L14.5489 7.83784ZM9.55071 11.5297V12.5297V11.5297ZM6.55197 7.79107C6.53906 7.23893 6.08099 6.80181 5.52886 6.81473C4.97673 6.82764 4.5396 7.28571 4.55252 7.83784L6.55197 7.79107ZM13.5492 7.81445L12.5494 7.79107C12.5327 8.50603 12.2222 9.19755 11.6665 9.71388L12.3472 10.4465L13.0278 11.179C13.9668 10.3066 14.5192 9.10859 14.5489 7.83784L13.5492 7.81445ZM12.3472 10.4465L11.6665 9.71388C11.1091 10.2317 10.3504 10.5297 9.55071 10.5297V11.5297V12.5297C10.8417 12.5297 12.0905 12.05 13.0278 11.179L12.3472 10.4465ZM9.55071 11.5297V10.5297C8.75099 10.5297 7.99228 10.2317 7.43495 9.71388L6.75426 10.4465L6.07358 11.179C7.0109 12.05 8.25977 12.5297 9.55071 12.5297V11.5297ZM6.75426 10.4465L7.43495 9.71388C6.87925 9.19755 6.5687 8.50603 6.55197 7.79107L5.55225 7.81445L4.55252 7.83784C4.58225 9.10859 5.13462 10.3066 6.07358 11.179L6.75426 10.4465Z" fill="currentColor" mask="url(#path-4-inside-2_1796_9049)"/>
</svg>